<svg width="155" height="12" viewBox="0 0 155 12" fill="none" xmlns="http://www.w3.org/2000/svg">
<path d="M89.1877 4.30804H94.9656V6.22204H89.1877V4.30804H87.2736V12.0001H89.1877V8.13597H94.9656H96.8798V4.30804V2.39404H89.1877V4.30804Z" fill="#292B32"/>
<path d="M106.485 6.22204H100.708V2.39404H98.7933V8.13597H100.708H106.485V10.0861H98.7933V12.0001H108.4V10.0861V2.39404H106.485V6.22204Z" fill="#292B32"/>
<path d="M117.969 6.22204H112.227V2.39404H110.314V12.0001H112.227V8.13597H117.969V12.0001H119.919V2.39404H117.969V6.22204Z" fill="#292B32"/>
<path d="M121.833 2.39404V12.0001H123.748H131.44V10.0861H123.748V8.13597H127.575V6.22204H123.748V4.30804H131.44V2.39404H123.748H121.833Z" fill="#292B32"/>
<path d="M133.353 4.30804V6.22204H135.267V4.30804H137.182V12.0001H139.095V4.30804H141.009V6.22204H142.924V4.30804V2.39404H133.353V4.30804Z" fill="#292B32"/>
<path d="M146.787 2.39404V4.30804H152.529V6.22204H146.787V4.30804H144.874V12.0001H146.787V8.13597H152.529V12.0001H154.443V8.13597V6.22204V4.30804V2.39404H146.787Z" fill="#292B32"/>
<path d="M8.58399 6.22204H2.84206V4.30804H4.75605H8.58399V2.39404H4.75605H0.891968V4.30804V12.0001H2.84206V8.13597H8.58399H10.498V6.22204V4.30804H8.58399V6.22204Z" fill="#292B32"/>
<path d="M12.4119 2.39404V10.0861V12.0001H22.0178V10.0861H14.3258V8.13597H22.0178V6.22204H14.3258V4.30804H22.0178V2.39404H14.3258H12.4119Z" fill="#292B32"/>
<path d="M31.6236 4.30804L25.8458 7.81096V2.39404H23.9319V12.0001H25.8458V10.0861L31.6236 6.54705V12.0001H33.5378V2.39404H31.6236V4.30804Z" fill="#292B32"/>
<path d="M29.6741 0.47998H27.7599V2.39395H29.6741V0.47998Z" fill="#292B32"/>
<path d="M35.452 4.30804V6.22204H37.3656V4.30804H39.2798V12.0001H41.2299V4.30804H43.144V6.22204H45.0576V4.30804V2.39404H35.452V4.30804Z" fill="#292B32"/>
<path d="M71.9254 2.39404H70.0118V12.0001H71.9254V4.30804H79.6174V2.39404H71.9254Z" fill="#292B32"/>
<path d="M66.1477 6.22204H60.4058V2.39404H58.4916V12.0001H60.4058V8.13597H66.1477V12.0001H68.0978V2.39404H66.1477V6.22204Z" fill="#292B32"/>
<path d="M54.6638 4.30804L48.886 7.81096V2.39404H46.9718V12.0001H48.886V10.0861L54.6638 6.54705V12.0001H56.578V2.39404H54.6638V4.30804Z" fill="#292B32"/>
</svg>
